<?xml version="1.0" encoding="utf-8"?>
<svg width="597.7756pt" height="844.3898pt" viewBox="205.179 206.231 171.635 168.878" version="1.1" xmlns="http://www.w3.org/2000/svg">
  <g id="surface1">
    <path style="stroke: none; fill-rule: evenodd; fill-opacity: 1; fill: rgb(255, 255, 255);" d="M 305.446 287.733 C 299.552 286.37 293.79 285.452 287.513 285.433 L 287.513 268.878 C 293.97 269.226 299.934 270.347 305.446 271.558 Z M 268.88 269.503 C 270.763 269.108 272.7 268.796 274.68 268.569 C 277.731 268.214 280.895 268.058 284.13 268.089 C 285.04 268.097 285.938 268.124 286.833 268.163 L 286.829 251.96 C 285.938 251.921 285.036 251.894 284.126 251.886 C 279.083 251.839 273.895 252.429 268.88 253.702 Z M 343.063 289.296 C 333.036 297.925 324.376 296.585 314.001 293.913 C 311.809 306.671 300.696 316.378 287.313 316.378 C 273.68 316.378 262.399 306.3 260.513 293.191 C 241.29 300.034 237.591 320.456 251.692 332.183 C 261.352 340.218 273.77 345.05 287.313 345.05 C 318.102 345.05 343.063 320.089 343.063 289.296 Z M 238.188 315.675 C 233.962 307.823 231.563 298.839 231.563 289.296 C 231.563 265.226 246.821 244.714 268.196 236.913 L 268.196 253.175 C 267.626 253.323 267.059 253.483 266.493 253.651 C 258.024 256.163 250.157 260.655 244.38 267.335 C 238.598 274.015 234.907 282.882 234.802 294.14 C 234.743 300.093 235.692 306.718 237.864 314.038 L 238.13 313.96 C 238.13 314.538 238.149 315.108 238.188 315.675 Z M 268.196 287.116 C 262.313 288.273 256.614 290.128 251.68 292.995 C 244.774 297.015 239.384 303.144 238.321 311.198 C 238.177 309.452 238.114 307.765 238.13 306.14 C 238.239 294.608 242.223 285.983 248.759 279.948 C 253.88 275.218 260.571 272.069 268.196 270.351 Z M 306.126 271.011 C 307.462 271.308 308.77 271.608 310.052 271.901 C 315.106 273.058 319.747 274.12 324.013 274.48 L 324.013 258.089 C 319.735 257.718 315.075 256.691 310.02 255.573 C 308.747 255.292 307.45 255.007 306.126 254.726 Z M 343.063 267.851 L 343.063 284.198 L 340.544 286.366 C 336.727 289.651 332.673 291.788 327.583 292.042 C 326.638 292.089 325.673 292.073 324.696 292.003 L 324.696 275.222 C 331.755 275.698 337.813 274.159 343.063 267.851 Z M 324.696 240.128 C 330.794 240.503 336.649 239.066 343.063 233.546 L 343.063 250.433 C 338.18 256.882 332.384 257.999 324.696 257.452 Z M 287.513 233.55 C 294.239 233.569 300.114 234.659 305.446 235.948 L 305.446 253.886 C 299.919 252.722 293.946 251.648 287.513 251.312 Z M 287.513 233.55"/>
  </g>
</svg>